# xmcd CD database file
#
# Track frame offsets:
#	150
#	17219
#	33380
#	52287
#
# Disc length: 942 seconds
#
# Revision: 1
# Processed by: cddbd v1.5.1PL0 Copyright (c) Steve Scherf et al.
# Submitted via: CDex 1.51
#
DISCID=3203ac04
DTITLE=Mos Def - The New Danger
DYEAR=2004
DGENRE=Hip-Hop
TTITLE0=Sex, Love and Money {Radio Edit}
TTITLE1=Ghetto Rock {Radio Edit}
TTITLE2=Sex, Love and Money {Instrumental}
TTITLE3=Ghetto Rock {Instrumental}
EXTD=YEAR: 2004
EXTT0=
EXTT1=
EXTT2=
EXTT3=
PLAYORDER=
